<svg xmlns="http://www.w3.org/2000/svg" xmlns:xlink="http://www.w3.org/1999/xlink" viewBox="0 0 27.58 14.49"><defs><style>.cls-1{fill:url(#linear-gradient);}.cls-2{fill:#919191;}</style><linearGradient id="linear-gradient" x1="3146.54" y1="5607.32" x2="3134.44" y2="5582.77" gradientTransform="translate(5608.51 -3133.52) rotate(90)" gradientUnits="userSpaceOnUse"><stop offset="0.1" stop-color="#e5e6ea"/><stop offset="0.28" stop-color="#e7e8ec"/><stop offset="0.64" stop-color="#fff"/></linearGradient></defs><g id="Layer_2" data-name="Layer 2"><g id="Bottons"><rect class="cls-1" x="0.72" y="0.83" width="23.78" height="13.12"/><path class="cls-2" d="M2.39,14.49H23.6A2.38,2.38,0,0,0,26,12.11V10h1.6V4.41H26v-2A2.39,2.39,0,0,0,23.6,0H2.39A2.39,2.39,0,0,0,0,2.39v9.72a2.38,2.38,0,0,0,2.39,2.38Zm0-1.59a.79.79,0,0,1-.8-.79V2.39a.8.8,0,0,1,.8-.8H23.6a.79.79,0,0,1,.79.8v9.72a.79.79,0,0,1-.79.79Z"/><polygon class="cls-2" points="2.46 2.38 2.46 12.18 7.23 12.18 7.23 2.38 2.46 2.38 2.46 2.38"/></g></g></svg>