<svg xmlns="http://www.w3.org/2000/svg" viewBox="0 0 27.58 14.49"><defs><style>.cls-1{fill:#fff;}.cls-2{fill:#919191;}</style></defs><g id="Layer_2" data-name="Layer 2"><g id="Bottons"><rect class="cls-1" x="1.34" y="1.38" width="23.78" height="12.3"/><path class="cls-2" d="M15.35,9.94V9.53H18.8s.68,0,.68-.58a.6.6,0,0,0-.68-.57H15.35V6.11H18.8s.68,0,.68-.57A.6.6,0,0,0,18.8,5H15.35V4.58s0-1.51-1.44-1.06l-2.68.82A2.09,2.09,0,0,0,9.79,6.28v.24H6V8H9.79v.25a2.1,2.1,0,0,0,1.44,1.95l2.68.82s1.44.44,1.44-1.06Z"/><path class="cls-2" d="M2.39,14.49H23.6A2.38,2.38,0,0,0,26,12.11V10h1.6V4.41H26v-2A2.39,2.39,0,0,0,23.6,0H2.39A2.39,2.39,0,0,0,0,2.39v9.72a2.38,2.38,0,0,0,2.39,2.38Zm0-1.59a.79.79,0,0,1-.8-.79V2.39a.8.8,0,0,1,.8-.8H23.6a.79.79,0,0,1,.79.8v9.72a.79.79,0,0,1-.79.79Z"/></g></g></svg>