<svg xmlns="http://www.w3.org/2000/svg" viewBox="0 0 27.77 14.49"><defs><style>.cls-1{fill:#fff;}.cls-2{fill:#919191;}</style></defs><g id="Layer_2" data-name="Layer 2"><g id="Bottons"><rect class="cls-1" x="1.35" y="0.7" width="23.94" height="12.3"/><path class="cls-2" d="M2.4,14.49H23.76a2.38,2.38,0,0,0,2.4-2.38V10h1.61V4.41H26.16v-2A2.39,2.39,0,0,0,23.76,0H2.4A2.4,2.4,0,0,0,0,2.39v9.72a2.39,2.39,0,0,0,2.4,2.38Zm0-1.59a.79.79,0,0,1-.8-.79V2.39a.8.8,0,0,1,.8-.8H23.76a.8.8,0,0,1,.8.8v9.72a.79.79,0,0,1-.8.79Z"/><polygon class="cls-2" points="2.48 12.18 18.21 12.18 18.21 2.38 2.48 2.38 2.48 12.18 2.48 12.18"/></g></g></svg>